<svg width="109" height="21" viewBox="0 0 109 21" fill="none" xmlns="http://www.w3.org/2000/svg">
<path d="M105.917 16.9666C104.588 16.9666 103.607 16.6193 102.973 15.9247C102.354 15.215 102.044 14.09 102.044 12.5498V7.36297H100.323L100.368 4.80351H101.568C102.036 4.80351 102.384 4.73556 102.61 4.59966C102.837 4.46376 102.973 4.21461 103.018 3.85221L103.312 2.15345H105.17V4.80351H108.182V7.45357H105.17V12.4139C105.17 12.9575 105.298 13.3501 105.555 13.5917C105.811 13.8333 106.204 13.9541 106.733 13.9541C107.019 13.9541 107.291 13.9239 107.548 13.8635C107.82 13.8031 108.054 13.705 108.25 13.5691V16.6042C107.782 16.7552 107.352 16.8533 106.959 16.8986C106.566 16.9439 106.219 16.9666 105.917 16.9666Z" fill="#0008FF"/>
<path d="M93.7682 17.0119C92.5753 17.0119 91.5259 16.7778 90.6199 16.3097C89.7139 15.8265 89.0042 15.1244 88.4908 14.2033C87.9774 13.2671 87.7207 12.1044 87.7207 10.7152C87.7207 9.32597 87.9774 8.17082 88.4908 7.24972C89.0193 6.32861 89.7365 5.64156 90.6425 5.18856C91.5636 4.72046 92.6055 4.48641 93.7682 4.48641C94.9611 4.48641 96.0106 4.72046 96.9166 5.18856C97.8377 5.65666 98.5549 6.35881 99.0683 7.29502C99.5968 8.21612 99.8611 9.37127 99.8611 10.7605C99.8611 12.1648 99.5893 13.335 99.0457 14.2712C98.5172 15.1923 97.7924 15.8794 96.8713 16.3324C95.9653 16.7854 94.9309 17.0119 93.7682 17.0119ZM93.8815 14.5883C94.4704 14.5883 94.9611 14.4524 95.3537 14.1806C95.7614 13.9088 96.0634 13.5011 96.2597 12.9575C96.4711 12.3988 96.5768 11.7269 96.5768 10.9417C96.5768 10.1112 96.4636 9.40902 96.2371 8.83522C96.0257 8.24632 95.7086 7.80087 95.2858 7.49887C94.863 7.18177 94.3269 7.02322 93.6776 7.02322C93.1189 7.02322 92.6357 7.15912 92.228 7.43092C91.8203 7.68762 91.5108 8.09532 91.2994 8.65402C91.088 9.19762 90.9823 9.86957 90.9823 10.6699C90.9823 11.9534 91.239 12.9273 91.7524 13.5917C92.2658 14.2561 92.9755 14.5883 93.8815 14.5883Z" fill="#0008FF"/>
<path d="M74.5468 20.5V4.80351H77.2422L77.2648 8.11042L77.6725 8.13307C77.8084 7.33277 78.0425 6.66082 78.3747 6.11721C78.722 5.57361 79.1674 5.16591 79.711 4.89411C80.2546 4.62231 80.8813 4.48641 81.591 4.48641C82.648 4.48641 83.554 4.75066 84.309 5.27916C85.064 5.79256 85.6378 6.52492 86.0304 7.47622C86.4381 8.41242 86.6419 9.52227 86.6419 10.8058C86.6419 11.9987 86.4607 13.0632 86.0983 13.9994C85.7359 14.9205 85.1923 15.6529 84.4675 16.1965C83.7578 16.7401 82.8669 17.0119 81.7948 17.0119C81.0398 17.0119 80.3981 16.8684 79.8696 16.5815C79.3562 16.2946 78.9258 15.8945 78.5785 15.3811C78.2463 14.8526 77.967 14.2259 77.7405 13.5011H77.3101C77.4007 13.9088 77.4838 14.3241 77.5593 14.7469C77.6348 15.1697 77.6952 15.5849 77.7405 15.9926C77.7858 16.3852 77.8084 16.7703 77.8084 17.1478V20.5H74.5468ZM80.6623 14.4071C81.2059 14.4071 81.6665 14.2561 82.044 13.9541C82.4215 13.6521 82.7084 13.2293 82.9047 12.6857C83.1161 12.1421 83.2218 11.523 83.2218 10.8284C83.2218 10.0734 83.1161 9.43167 82.9047 8.90317C82.6933 8.35957 82.3913 7.93677 81.9987 7.63477C81.6061 7.33277 81.138 7.18177 80.5944 7.18177C80.1112 7.18177 79.6959 7.28747 79.3486 7.49887C79.0013 7.71027 78.7069 7.98962 78.4653 8.33692C78.2388 8.68422 78.0727 9.06172 77.967 9.46942C77.8613 9.86202 77.8084 10.2395 77.8084 10.6019V11.0323C77.8084 11.3192 77.8462 11.6212 77.9217 11.9383C77.9972 12.2403 78.118 12.5423 78.2841 12.8443C78.4502 13.1312 78.6465 13.3954 78.873 13.637C79.0995 13.8635 79.3637 14.0523 79.6657 14.2033C79.9677 14.3392 80.2999 14.4071 80.6623 14.4071Z" fill="#0008FF"/>
<path d="M66.385 17.0119C65.4035 17.0119 64.5202 16.9137 63.735 16.7174C62.9649 16.5362 62.3005 16.2569 61.7418 15.8794C61.1982 15.4868 60.7678 15.0036 60.4507 14.4298C60.1487 13.8409 59.9751 13.1689 59.9297 12.4139L62.7837 11.4853C62.8139 12.1648 62.98 12.731 63.282 13.184C63.5991 13.637 64.0445 13.9692 64.6183 14.1806C65.1921 14.392 65.8339 14.4977 66.5436 14.4977C67.2231 14.4977 67.7969 14.4147 68.265 14.2486C68.7331 14.0825 69.0879 13.8635 69.3295 13.5917C69.5711 13.3048 69.6919 12.9953 69.6919 12.6631C69.6919 12.2705 69.5409 11.9534 69.2389 11.7118C68.9369 11.4702 68.5217 11.2663 67.9932 11.1002C67.4798 10.9341 66.8909 10.7756 66.2265 10.6246C65.4866 10.4585 64.7542 10.2697 64.0294 10.0583C63.3197 9.84692 62.6704 9.57512 62.0815 9.24292C61.5077 8.91072 61.0472 8.48037 60.6999 7.95187C60.3677 7.42337 60.2016 6.75896 60.2016 5.95866C60.2016 5.03756 60.428 4.24481 60.8811 3.58041C61.3491 2.90091 62.0287 2.3724 62.9196 1.9949C63.8105 1.6174 64.8826 1.42865 66.1359 1.42865C67.4043 1.42865 68.4839 1.6174 69.3748 1.9949C70.2808 2.3573 70.983 2.87826 71.4813 3.55776C71.9796 4.22216 72.2514 5.01491 72.2967 5.93601L69.3522 6.75142C69.3522 6.28331 69.2767 5.87561 69.1257 5.52831C68.9747 5.18101 68.7633 4.89411 68.4915 4.66761C68.2197 4.42601 67.8799 4.24481 67.4722 4.12401C67.0796 4.00321 66.6266 3.94281 66.1132 3.94281C65.5243 3.94281 65.0109 4.01831 64.573 4.16931C64.1502 4.32031 63.8256 4.52416 63.5991 4.78086C63.3877 5.03756 63.282 5.33956 63.282 5.68686C63.282 6.09456 63.4481 6.43431 63.7803 6.70612C64.1276 6.96282 64.5806 7.17422 65.1393 7.34032C65.7131 7.50642 66.3397 7.66497 67.0192 7.81597C67.6685 7.95187 68.3254 8.12552 68.9898 8.33692C69.6693 8.53322 70.2959 8.79747 70.8697 9.12967C71.4586 9.44677 71.9267 9.88467 72.274 10.4434C72.6364 10.987 72.8176 11.674 72.8176 12.5045C72.8176 13.4105 72.576 14.2033 72.0928 14.8828C71.6096 15.5623 70.8848 16.0908 69.9184 16.4683C68.9671 16.8307 67.7893 17.0119 66.385 17.0119Z" fill="#0008FF"/>
<path d="M53.4959 17.0119C52.5144 17.0119 51.6386 16.876 50.8685 16.6042C50.1135 16.3324 49.4717 15.9398 48.9432 15.4264C48.4147 14.913 48.007 14.2788 47.7201 13.5238C47.4483 12.7688 47.3124 11.9156 47.3124 10.9643C47.3124 10.0281 47.4408 9.16742 47.6975 8.38222C47.9693 7.58192 48.3619 6.89487 48.8753 6.32106C49.3887 5.73216 50.0153 5.27916 50.7552 4.96206C51.4951 4.64496 52.3332 4.48641 53.2694 4.48641C54.1754 4.48641 54.9832 4.63741 55.6929 4.93941C56.4026 5.22631 56.9916 5.66421 57.4597 6.25311C57.9429 6.84202 58.2902 7.56682 58.5016 8.42752C58.7281 9.27312 58.8111 10.2471 58.7507 11.3494L49.4189 11.44V9.65062L56.8708 9.58267L55.7156 10.4887C55.8213 9.68837 55.7684 9.03152 55.557 8.51812C55.3456 8.00472 55.0361 7.62722 54.6284 7.38562C54.2358 7.14402 53.7979 7.02322 53.3147 7.02322C52.7409 7.02322 52.235 7.17422 51.7971 7.47622C51.3592 7.77822 51.0195 8.22367 50.7779 8.81257C50.5363 9.38637 50.4155 10.081 50.4155 10.8964C50.4155 12.1799 50.6948 13.1236 51.2535 13.7276C51.8273 14.3316 52.5748 14.6336 53.4959 14.6336C53.9187 14.6336 54.2735 14.5808 54.5604 14.4751C54.8624 14.3543 55.104 14.2033 55.2852 14.0221C55.4815 13.8409 55.6325 13.637 55.7383 13.4105C55.8591 13.184 55.9572 12.9575 56.0327 12.731L58.864 13.3426C58.7281 13.9013 58.5242 14.4071 58.2524 14.8601C57.9957 15.298 57.6484 15.6831 57.2105 16.0153C56.7726 16.3324 56.2441 16.574 55.625 16.7401C55.021 16.9213 54.3113 17.0119 53.4959 17.0119Z" fill="#0008FF"/>
<path d="M35.51 16.6948V0.5H38.7263V9.49207C39.1944 9.17497 39.6398 8.83522 40.0626 8.47282C40.5005 8.09532 40.8931 7.70272 41.2404 7.29502C41.6028 6.88732 41.9199 6.47206 42.1917 6.04926C42.4786 5.62646 42.7202 5.21121 42.9165 4.80351H46.6538C46.4273 5.37731 46.1253 5.95866 45.7478 6.54756C45.3854 7.12137 44.9475 7.65742 44.4341 8.15572C43.9358 8.63892 43.3545 9.05417 42.69 9.40147C42.0256 9.74877 41.2933 9.98282 40.493 10.1036V10.4887C41.5047 10.3075 42.3427 10.3226 43.0071 10.534C43.6715 10.7454 44.2151 11.0851 44.638 11.5532C45.0759 12.0062 45.4232 12.5347 45.6799 13.1387C45.9366 13.7276 46.1706 14.3241 46.382 14.9281L46.903 16.6948H43.3469L43.0524 15.5849C42.841 14.845 42.607 14.1957 42.3503 13.637C42.0936 13.0783 41.7538 12.648 41.331 12.346C40.9233 12.0289 40.3571 11.8703 39.6323 11.8703H38.7263V16.6948H35.51Z" fill="#0008FF"/>
<path d="M25.726 17.0119C25.0616 17.0119 24.4727 16.8835 23.9593 16.6268C23.4459 16.355 23.0458 15.97 22.7589 15.4717C22.472 14.9734 22.3285 14.3543 22.3285 13.6144C22.3285 12.9651 22.4493 12.4215 22.6909 11.9836C22.9476 11.5457 23.3176 11.1908 23.8008 10.919C24.284 10.6472 24.8804 10.4207 25.5901 10.2395C26.2998 10.0583 27.1077 9.89977 28.0137 9.76387C28.4969 9.68837 28.8895 9.62042 29.1915 9.56002C29.5086 9.48452 29.7427 9.37127 29.8937 9.22027C30.0447 9.05417 30.1201 8.82012 30.1201 8.51812C30.1201 8.09532 29.9692 7.73292 29.6672 7.43092C29.3651 7.12892 28.8895 6.97792 28.2402 6.97792C27.8023 6.97792 27.3946 7.05342 27.0171 7.20442C26.6547 7.35542 26.3376 7.58192 26.0658 7.88392C25.8091 8.18592 25.6203 8.57097 25.4995 9.03907L22.623 8.15572C22.8042 7.53662 23.0609 7.00057 23.3931 6.54756C23.7404 6.09456 24.1556 5.71706 24.6388 5.41506C25.122 5.09796 25.6732 4.86391 26.2923 4.71291C26.9114 4.56191 27.5833 4.48641 28.3081 4.48641C29.4708 4.48641 30.4146 4.67516 31.1394 5.05266C31.8793 5.41506 32.4305 5.98886 32.7929 6.77407C33.1553 7.54417 33.3365 8.54077 33.3365 9.76387V11.8024C33.3365 12.3309 33.344 12.8669 33.3591 13.4105C33.3893 13.9541 33.4195 14.5053 33.4497 15.064C33.495 15.6076 33.5403 16.1512 33.5856 16.6948H30.7091C30.6487 16.3173 30.5883 15.8869 30.5279 15.4037C30.4826 14.9054 30.4448 14.4071 30.4146 13.9088H30.0069C29.7955 14.4826 29.4935 15.0036 29.1009 15.4717C28.7083 15.9398 28.2251 16.3173 27.6513 16.6042C27.0926 16.876 26.4508 17.0119 25.726 17.0119ZM27.1077 14.6563C27.3946 14.6563 27.6815 14.6034 27.9684 14.4977C28.2704 14.392 28.5573 14.2486 28.8291 14.0674C29.116 13.8711 29.3727 13.6295 29.5992 13.3426C29.8408 13.0557 30.0371 12.731 30.1881 12.3686L30.1428 10.466L30.6637 10.5793C30.392 10.7756 30.0749 10.9341 29.7125 11.0549C29.35 11.1606 28.9725 11.2437 28.5799 11.3041C28.2024 11.3645 27.8249 11.4324 27.4474 11.5079C27.0699 11.5834 26.7302 11.6816 26.4282 11.8024C26.1413 11.9232 25.9072 12.0893 25.726 12.3007C25.5599 12.497 25.4769 12.7763 25.4769 13.1387C25.4769 13.6068 25.6279 13.9768 25.9299 14.2486C26.2319 14.5204 26.6245 14.6563 27.1077 14.6563Z" fill="#0008FF"/>
<path d="M19.0338 16.9666C17.705 16.9666 16.7235 16.6193 16.0893 15.9247C15.4702 15.215 15.1607 14.09 15.1607 12.5498V7.36297H13.4393L13.4846 4.80351H14.685C15.1531 4.80351 15.5004 4.73556 15.7269 4.59966C15.9534 4.46376 16.0893 4.21461 16.1346 3.85221L16.4291 2.15345H18.2864V4.80351H21.2988V7.45357H18.2864V12.4139C18.2864 12.9575 18.4147 13.3501 18.6714 13.5917C18.9281 13.8333 19.3207 13.9541 19.8492 13.9541C20.1361 13.9541 20.4079 13.9239 20.6646 13.8635C20.9364 13.8031 21.1705 13.705 21.3668 13.5691V16.6042C20.8987 16.7552 20.4683 16.8533 20.0757 16.8986C19.6831 16.9439 19.3358 16.9666 19.0338 16.9666Z" fill="#0008FF"/>
<path d="M6.45527 17.0119C5.47376 17.0119 4.59041 16.9137 3.80521 16.7174C3.03511 16.5362 2.37071 16.2569 1.812 15.8794C1.2684 15.4868 0.838052 15.0036 0.520951 14.4298C0.218951 13.8409 0.0453001 13.1689 0 12.4139L2.85391 11.4853C2.88411 12.1648 3.05021 12.731 3.35221 13.184C3.66931 13.637 4.11476 13.9692 4.68856 14.1806C5.26236 14.392 5.90411 14.4977 6.61382 14.4977C7.29332 14.4977 7.86712 14.4147 8.33522 14.2486C8.80332 14.0825 9.15817 13.8635 9.39977 13.5917C9.64137 13.3048 9.76218 12.9953 9.76218 12.6631C9.76218 12.2705 9.61117 11.9534 9.30917 11.7118C9.00717 11.4702 8.59192 11.2663 8.06342 11.1002C7.55002 10.9341 6.96112 10.7756 6.29672 10.6246C5.55681 10.4585 4.82446 10.2697 4.09966 10.0583C3.38996 9.84692 2.74066 9.57512 2.15176 9.24292C1.57795 8.91072 1.1174 8.48037 0.770102 7.95187C0.437901 7.42337 0.271801 6.75896 0.271801 5.95866C0.271801 5.03756 0.498301 4.24481 0.951302 3.58041C1.4194 2.90091 2.09891 2.3724 2.98981 1.9949C3.88071 1.6174 4.95281 1.42865 6.20612 1.42865C7.47452 1.42865 8.55417 1.6174 9.44507 1.9949C10.3511 2.3573 11.0532 2.87826 11.5515 3.55776C12.0498 4.22216 12.3216 5.01491 12.3669 5.93601L9.42242 6.75142C9.42242 6.28331 9.34692 5.87561 9.19592 5.52831C9.04492 5.18101 8.83352 4.89411 8.56172 4.66761C8.28992 4.42601 7.95017 4.24481 7.54247 4.12401C7.14987 4.00321 6.69687 3.94281 6.18347 3.94281C5.59456 3.94281 5.08116 4.01831 4.64326 4.16931C4.22046 4.32031 3.89581 4.52416 3.66931 4.78086C3.45791 5.03756 3.35221 5.33956 3.35221 5.68686C3.35221 6.09456 3.51831 6.43431 3.85051 6.70612C4.19781 6.96282 4.65081 7.17422 5.20951 7.34032C5.78331 7.50642 6.40997 7.66497 7.08947 7.81597C7.73877 7.95187 8.39562 8.12552 9.06002 8.33692C9.73952 8.53322 10.3662 8.79747 10.94 9.12967C11.5289 9.44677 11.997 9.88467 12.3443 10.4434C12.7067 10.987 12.8879 11.674 12.8879 12.5045C12.8879 13.4105 12.6463 14.2033 12.1631 14.8828C11.6799 15.5623 10.9551 16.0908 9.98868 16.4683C9.03737 16.8307 7.85957 17.0119 6.45527 17.0119Z" fill="#0008FF"/>
<path d="M93.7806 17.0119C92.5877 17.0119 91.5382 16.7779 90.6322 16.3098C89.7262 15.8266 89.0165 15.1244 88.5031 14.2033C87.9897 13.2671 87.733 12.1044 87.733 10.7152C87.733 9.326 87.9897 8.17084 88.5031 7.24974C89.0316 6.32864 89.7489 5.64159 90.6549 5.18859C91.576 4.72049 92.6179 4.48643 93.7806 4.48643C94.9735 4.48643 96.023 4.72049 96.929 5.18859C97.8501 5.65669 98.5673 6.35884 99.0807 7.29504C99.6092 8.21614 99.8735 9.3713 99.8735 10.7605C99.8735 12.1648 99.6017 13.3351 99.0581 14.2713C98.5296 15.1924 97.8048 15.8794 96.8837 16.3324C95.9777 16.7854 94.9433 17.0119 93.7806 17.0119Z" fill="#0008FF"/>
</svg>
