<svg width="20" height="21" viewBox="0 0 20 21" fill="none" xmlns="http://www.w3.org/2000/svg">
<path d="M19.6296 11.833C19.2964 11.0111 19.2964 10.1003 19.6296 9.30062L19.7407 9.03406C20.4515 7.34582 19.6296 5.39101 17.9414 4.68018L17.697 4.56911C16.8751 4.2359 16.2309 3.59171 15.8977 2.7698L15.8089 2.54766C15.0758 0.859423 13.1432 0.0597308 11.4328 0.748355L11.2106 0.83721C10.3887 1.17041 9.47798 1.17041 8.65607 0.83721L8.45615 0.748355C6.79012 0.0597308 4.83532 0.881637 4.12448 2.56988L4.03563 2.74759C3.70242 3.56949 3.05823 4.21369 2.23632 4.54689L2.0364 4.63575C0.37037 5.34659 -0.451536 7.30139 0.259302 8.98963L0.348157 9.18955C0.681362 10.0115 0.681362 10.9222 0.348157 11.7219L0.259302 11.9663C-0.451536 13.6545 0.348157 15.6093 2.05861 16.2979L2.28075 16.3868C3.10265 16.72 3.74685 17.3642 4.08005 18.1861L4.19112 18.4304C4.87975 20.1409 6.83455 20.9406 8.52279 20.252L8.76714 20.1409C9.58905 19.8077 10.4998 19.8077 11.3217 20.1409L11.5216 20.2298C13.2099 20.9406 15.1647 20.1187 15.8755 18.4304L15.9644 18.2527C16.2976 17.4308 16.9418 16.7866 17.7637 16.4534L17.9414 16.3868C19.6518 15.6759 20.4515 13.7434 19.7407 12.0329L19.6296 11.833ZM9.05592 14.8318L4.72425 11.1888L6.05707 9.61161L8.81157 11.944L13.6764 6.16849L15.2535 7.50131L9.05592 14.8318Z" fill="#0008FF"/>
</svg>
